<svg width="20" height="17" viewBox="0 0 20 17" fill="none" xmlns="http://www.w3.org/2000/svg">
<path fill-rule="evenodd" clip-rule="evenodd" d="M16.3645 0C16.5541 7.44664e-05 16.739 0.0585106 16.8932 0.167127C17.0475 0.275744 17.1633 0.429104 17.2245 0.605737L17.3427 0.943947C17.4773 1.33204 17.7004 1.68464 17.9949 1.97468C18.2895 2.26471 18.6476 2.48448 19.0419 2.61711L19.3856 2.73253C19.5649 2.79299 19.7205 2.90707 19.8306 3.05883C19.9408 3.21059 20 3.39244 20 3.57895C20 3.76546 19.9408 3.9473 19.8306 4.09906C19.7205 4.25082 19.5649 4.36491 19.3856 4.42537L19.0419 4.54168C18.6476 4.6741 18.2893 4.89368 17.9946 5.18356C17.6999 5.47344 17.4766 5.82592 17.3418 6.21395L17.2245 6.55216C17.1631 6.7286 17.0472 6.88173 16.893 6.99015C16.7388 7.09857 16.554 7.15685 16.3645 7.15685C16.175 7.15685 15.9902 7.09857 15.836 6.99015C15.6818 6.88173 15.5659 6.7286 15.5045 6.55216L15.3863 6.21395C15.2517 5.82585 15.0286 5.47325 14.7341 5.18322C14.4395 4.89318 14.0814 4.67341 13.6871 4.54079L13.3434 4.42537C13.1642 4.36491 13.0086 4.25082 12.8984 4.09906C12.7882 3.9473 12.729 3.76546 12.729 3.57895C12.729 3.39244 12.7882 3.21059 12.8984 3.05883C13.0086 2.90707 13.1642 2.79299 13.3434 2.73253L13.6871 2.61621C14.0814 2.48379 14.4397 2.26422 14.7344 1.97433C15.0291 1.68445 15.2524 1.33197 15.3872 0.943947L15.5045 0.605737C15.5657 0.429104 15.6816 0.275744 15.8358 0.167127C15.99 0.0585106 16.1749 7.44664e-05 16.3645 0ZM16.3645 2.85958C16.1494 3.12591 15.9042 3.36726 15.6336 3.57895C15.9045 3.79011 16.149 4.03168 16.3645 4.29832C16.5791 4.03168 16.8245 3.79011 17.0955 3.57895C16.8248 3.36726 16.5796 3.12591 16.3645 2.85958ZM5.45483 1.41905C5.79575 1.08344 6.25816 0.894838 6.74036 0.894737H10.9097C11.1508 0.894737 11.382 0.989003 11.5525 1.1568C11.723 1.32459 11.8188 1.55217 11.8188 1.78947C11.8188 2.02677 11.723 2.25435 11.5525 2.42215C11.382 2.58994 11.1508 2.68421 10.9097 2.68421H6.74036L5.45483 3.94937C5.11392 4.28498 4.65151 4.47358 4.16931 4.47368H1.81828V15.2105H16.3645V9.84211C16.3645 9.60481 16.4603 9.37723 16.6308 9.20943C16.8013 9.04164 17.0325 8.94737 17.2736 8.94737C17.5148 8.94737 17.746 9.04164 17.9165 9.20943C18.087 9.37723 18.1828 9.60481 18.1828 9.84211V15.2105C18.1828 15.6851 17.9912 16.1403 17.6502 16.4759C17.3092 16.8115 16.8467 17 16.3645 17H1.81828C1.33604 17 0.873555 16.8115 0.532561 16.4759C0.191568 16.1403 0 15.6851 0 15.2105V4.47368C0 3.99909 0.191568 3.54393 0.532561 3.20834C0.873555 2.87274 1.33604 2.68421 1.81828 2.68421H4.16931L5.45483 1.41905ZM6.36397 9.39474C6.36397 8.68284 6.65133 8.0001 7.16282 7.49671C7.67431 6.99333 8.36804 6.71053 9.09139 6.71053C9.81475 6.71053 10.5085 6.99333 11.02 7.49671C11.5315 8.0001 11.8188 8.68284 11.8188 9.39474C11.8188 10.1066 11.5315 10.7894 11.02 11.2928C10.5085 11.7961 9.81475 12.0789 9.09139 12.0789C8.36804 12.0789 7.67431 11.7961 7.16282 11.2928C6.65133 10.7894 6.36397 10.1066 6.36397 9.39474ZM9.09139 4.92105C7.8858 4.92105 6.72958 5.39239 5.8771 6.23136C5.02462 7.07034 4.5457 8.20824 4.5457 9.39474C4.5457 10.5812 5.02462 11.7191 5.8771 12.5581C6.72958 13.3971 7.8858 13.8684 9.09139 13.8684C10.297 13.8684 11.4532 13.3971 12.3057 12.5581C13.1582 11.7191 13.6371 10.5812 13.6371 9.39474C13.6371 8.20824 13.1582 7.07034 12.3057 6.23136C11.4532 5.39239 10.297 4.92105 9.09139 4.92105Z" fill="#4D4D4D"/>
</svg>
